<svg width="2528" height="386" viewBox="0 0 2528 386" fill="none" xmlns="http://www.w3.org/2000/svg">
<path d="M2528 386.001V17.808C2528 17.808 2523.48 19.2033 2521.15 19.622C2518.81 20.0406 2515.7 20.8778 2511.8 20.8778C2507.91 20.8778 2505.17 22.9708 2502.83 24.6345C2500.5 26.3089 2498.94 26.309 2496.59 24.2159C2494.25 22.1229 2493.86 22.1229 2488.8 22.1229C2483.73 22.1229 2482.56 22.9601 2480.61 24.2159C2478.65 25.4718 2473.98 26.7276 2472.81 27.5648C2471.64 28.402 2469.69 30.0764 2466.57 30.0764C2463.46 30.0764 2461.5 32.1695 2460.33 33.4253C2459.16 34.6811 2456.82 34.2625 2454.1 33.8439C2451.36 33.4253 2449.41 36.3556 2447.86 38.0193C2446.3 39.6937 2445.13 40.5309 2442.79 41.3681C2440.46 42.2054 2436.17 40.9496 2433.82 40.1123C2431.48 39.2751 2427.59 40.1123 2425.24 40.5416C2422.91 40.9602 2419.01 41.3789 2415.1 40.1123C2411.21 38.8565 2409.25 40.9495 2405.74 41.7868C2402.24 42.624 2401.85 41.7868 2398.33 40.1123C2394.83 38.4379 2390.53 40.1123 2387.03 39.6937C2383.51 39.2751 2378.84 37.6114 2376.11 34.6812C2373.38 31.7509 2370.65 35.5184 2368.31 34.6812C2365.96 33.8439 2363.63 33.8439 2360.9 35.937C2358.17 38.03 2355.83 37.6114 2354.66 38.03C2353.49 38.4486 2348.03 38.03 2346.08 38.03C2344.13 38.03 2337.89 38.03 2336.33 38.8672C2334.77 39.7044 2329.31 41.7975 2326.98 40.5416C2324.64 39.2858 2318.01 38.8672 2316.07 38.8672C2314.12 38.8672 2306.32 41.7975 2304.76 43.0533C2303.2 44.3091 2300.48 47.2287 2297.36 46.3914C2294.23 45.5542 2291.9 45.5542 2290.73 45.5542C2289.56 45.5542 2284.1 50.1482 2280.21 50.9961C2276.31 51.8333 2276.69 50.9962 2272.8 52.6599C2268.9 54.3343 2268.9 56.8352 2267.73 56.8352C2266.56 56.8352 2263.06 57.2645 2261.5 58.091C2259.93 58.9282 2259.55 59.3468 2256.43 59.3468C2253.31 59.3468 2249.02 63.1035 2247.46 63.9408C2245.9 64.778 2241.61 63.5222 2238.11 63.1036C2234.6 62.685 2232.26 63.9408 2229.14 63.1036C2226.02 62.2664 2224.85 62.685 2220.17 61.8478C2215.49 61.0106 2211.2 61.8478 2209.64 61.8478C2208.07 61.8478 2206.13 60.1733 2202.23 58.9175C2198.33 57.6616 2197.16 59.3361 2193.65 60.1733C2190.13 61.0106 2187.8 59.3361 2186.24 57.2538C2184.69 55.1607 2179.22 57.2538 2175.33 58.5096C2171.43 59.7654 2169.87 58.9282 2167.53 60.6026C2165.2 62.2771 2160.9 64.778 2158.56 65.6152C2156.22 66.4524 2147.65 66.0339 2144.92 65.1966C2142.19 64.3594 2139.07 63.1143 2136.34 61.0213C2133.62 58.939 2128.15 61.0213 2127.38 63.1143C2126.6 65.1966 2123.49 64.3701 2121.14 64.3701C2118.8 64.3701 2114.52 65.2074 2111.4 64.3701C2108.28 63.5329 2111.01 61.0213 2110.23 57.6832C2109.45 54.3343 2104 59.7762 2102.43 61.0213C2100.87 62.2771 2094.63 61.0213 2092.3 61.0213C2089.96 61.0213 2085.28 61.8585 2082.17 63.1143C2079.05 64.3702 2076.71 63.1143 2073.2 62.6957C2069.7 62.2771 2066.57 63.1143 2063.46 65.1966C2060.34 67.2897 2057.61 67.2896 2053.32 67.2896C2049.03 67.2896 2045.13 68.5455 2043.19 65.1966C2041.24 61.8478 2039.67 63.5329 2036.56 66.8711C2033.43 70.2199 2032.66 67.7082 2028.37 67.2896C2024.08 66.871 2022.13 68.5455 2020.57 66.4524C2019.01 64.3594 2019.01 65.6152 2015.89 66.8711C2012.78 68.1269 2011.61 66.0339 2010.05 65.1966C2008.49 64.3594 2006.93 63.9408 2005.37 65.6152C2003.81 67.2896 2001.09 66.4524 2000.31 64.3594C1999.53 62.2771 1996.01 64.778 1996.01 64.778C1996.01 64.778 1992.9 63.9408 1991.34 65.6152C1989.77 67.2896 1990.17 68.1269 1986.66 66.0338C1983.16 63.9408 1983.16 67.2897 1982.38 68.9534C1981.6 70.6171 1975.36 64.778 1972.23 64.3594C1969.11 63.9408 1964.05 64.3594 1962.09 63.9408C1960.14 63.5222 1958.2 62.685 1954.29 63.5222C1950.4 64.3594 1946.89 62.685 1944.93 61.8478C1942.99 61.0106 1940.65 58.9175 1937.53 57.6617C1934.4 56.4058 1932.84 56.4059 1930.51 56.4059C1928.16 56.4059 1924.66 58.0803 1922.71 57.6617C1920.76 57.2431 1916.86 59.7547 1915.3 58.9175C1913.74 58.0803 1910.62 58.9175 1908.28 58.0803C1905.94 57.2431 1902.43 58.9175 1899.31 59.3361C1896.19 59.7547 1895.02 57.2431 1892.68 55.9872C1890.34 54.7314 1888.79 55.15 1886.45 55.15C1884.1 55.15 1881.38 54.7314 1878.26 53.8942C1875.13 53.057 1874.36 51.8012 1873.58 49.3003C1872.8 46.7886 1868.13 47.6258 1868.13 45.1249C1868.13 42.6132 1863.06 40.9388 1859.16 40.9388C1855.25 40.9388 1852.53 37.6007 1851.75 36.3448C1850.97 35.089 1849.02 35.089 1845.12 35.9262C1841.21 36.7634 1843.17 34.6704 1842.39 31.3322C1841.61 27.9834 1834.59 29.2392 1832.25 27.9941C1829.92 26.7383 1827.97 27.1569 1824.47 28.8314C1820.95 30.5058 1819.39 29.6685 1816.28 29.6685C1813.16 29.6685 1811.6 30.5058 1809.65 30.5058C1807.7 30.5058 1804.19 30.9244 1803.02 31.343C1801.85 31.7616 1796.39 30.9244 1794.44 30.5058C1792.49 30.0872 1790.55 32.1802 1788.59 34.2733C1786.64 36.3663 1782.75 33.0174 1780.41 33.0174C1778.06 33.0174 1772.22 33.0175 1770.26 34.2733C1768.32 35.5291 1765.98 34.2733 1762.46 34.2733C1758.96 34.2733 1757.39 37.1928 1754.28 38.4486C1751.16 39.7044 1746.09 35.937 1743.75 36.3556C1741.41 36.7635 1739.46 37.1928 1738.3 35.5183C1737.13 33.8439 1735.18 33.8439 1734.01 32.1695C1732.84 30.5058 1730.11 30.9137 1726.99 28.4127C1723.87 25.9118 1720.76 28.4127 1719.59 26.7383C1718.41 25.0639 1711.4 24.6452 1707.11 24.2266C1702.82 23.808 1699.31 23.3894 1697.36 22.5522C1695.41 21.715 1689.56 22.5522 1688.39 21.715C1687.22 20.8778 1683.71 22.1336 1681.37 23.3894C1679.03 24.6453 1677.48 22.5522 1673.57 21.2964C1669.68 20.0406 1670.84 20.4699 1665.38 20.0406C1659.93 19.622 1656.8 19.2034 1654.08 17.9475C1651.36 16.6917 1648.23 20.0406 1644.34 20.0406C1640.44 20.0406 1639.66 20.8778 1638.49 19.622C1637.33 18.3661 1634.99 16.2731 1631.87 16.2731C1628.74 16.2731 1627.97 16.2731 1625.63 14.5987C1623.29 12.9242 1622.91 13.7614 1619 13.7614C1615.1 13.7614 1615.88 17.0996 1614.71 17.0996C1613.53 17.0996 1611.19 17.5182 1609.64 19.6112C1608.08 21.6935 1608.47 22.1121 1604.96 21.2749C1601.45 20.4484 1599.9 22.5308 1599.12 24.2052C1598.34 25.8796 1594.82 24.2052 1594.05 22.9493C1593.27 21.6935 1590.94 22.5308 1589.38 24.2052C1587.82 25.8796 1586.64 27.1247 1585.09 27.5541C1583.53 27.9727 1580.8 28.3913 1577.68 27.9727C1574.57 27.5541 1573.01 30.0549 1570.67 30.0549C1568.32 30.0549 1566.38 31.7294 1565.6 33.8224C1564.82 35.9047 1560.92 34.6597 1559.36 33.4039C1557.81 32.148 1555.86 31.3108 1554.69 32.5666C1553.53 33.8224 1551.18 35.0675 1548.84 35.9047C1546.5 36.742 1543.38 35.9048 1540.65 35.0676C1537.93 34.2303 1535.2 35.4862 1532.46 37.1606C1529.74 38.835 1526.62 37.1606 1525.44 35.9047C1524.27 34.6596 1524.27 33.8225 1521.93 32.9852C1519.59 32.148 1518.04 35.4969 1516.86 37.1606C1515.7 38.835 1514.13 37.9978 1511.02 37.5792C1507.89 37.1606 1509.46 39.2536 1507.5 40.5095C1505.56 41.7546 1502.83 42.1731 1501.27 41.3467C1499.7 40.5094 1494.64 40.0908 1492.3 40.0908C1489.95 40.0908 1488.4 43.8583 1487.23 45.1141C1486.06 46.3592 1482.16 45.1141 1479.43 44.2769C1476.71 43.4397 1474.37 44.2769 1472.41 44.2769C1470.46 44.2769 1465.4 45.9514 1464.22 45.9514C1463.05 45.9514 1462.66 43.0318 1461.49 41.3574C1460.32 39.683 1458.37 40.5202 1456.03 42.6132C1453.69 44.6955 1452.92 44.6955 1451.36 43.0318C1449.8 41.3574 1447.07 44.6955 1445.51 44.6955C1443.95 44.6955 1440.45 44.6955 1439.28 45.1249C1438.1 45.5435 1433.04 45.5435 1430.31 45.5435C1427.58 45.5435 1426.8 45.5435 1426.02 47.6365C1425.24 49.7188 1421.34 48.8923 1418.61 47.6365C1415.88 46.3807 1412.77 46.3807 1410.03 45.5435C1407.31 44.7063 1404.58 42.6239 1404.58 42.6239C1404.58 42.6239 1399.51 43.0426 1397.56 43.4612C1395.61 43.8691 1392.49 43.4612 1390.54 43.0426C1388.59 42.624 1385.47 42.624 1383.91 43.0426C1382.35 43.4612 1375.34 44.7063 1374.17 43.0426C1373 41.3681 1370.66 42.2053 1369.11 44.2984C1367.55 46.3914 1365.21 46.3807 1363.26 46.3807C1361.32 46.3807 1358.97 42.2053 1358.97 42.2053C1358.97 42.2053 1356.25 40.5416 1353.52 42.2053C1350.78 43.869 1348.83 42.624 1348.83 41.3681C1348.83 40.1123 1347.66 39.6937 1349.22 37.1928C1350.78 34.6811 1344.94 37.6114 1344.94 34.6812C1344.94 31.7509 1341.43 32.5881 1337.92 33.8439C1334.41 35.0997 1332.45 35.9262 1328.95 37.6114C1325.44 39.2858 1324.27 40.9495 1323.1 41.7868C1321.93 42.624 1315.3 45.5542 1313.74 46.8101C1312.18 48.0659 1310.63 48.9031 1309.07 49.3217C1307.5 49.7403 1304.78 52.2412 1303.61 51.8226C1302.44 51.404 1298.15 50.9854 1296.98 50.9854C1295.81 50.9854 1293.08 52.2412 1292.31 54.3343C1291.53 56.4273 1289.18 52.2412 1288.02 52.2412C1286.85 52.2412 1282.18 52.2412 1282.18 52.2412C1282.18 52.2412 1279.83 48.0659 1278.67 48.4845C1277.5 48.9031 1273.61 49.3217 1272.43 47.2286C1271.26 45.1356 1268.93 45.5542 1267.37 45.5542C1265.81 45.5542 1263.08 45.5542 1260.35 45.1356C1257.63 44.7063 1251 43.4612 1249.83 44.2984C1248.66 45.1356 1244.37 46.8101 1243.2 47.2179C1242.03 47.6365 1236.57 45.9621 1235.79 44.7063C1235.01 43.4612 1231.9 42.624 1228.77 40.9495C1225.66 39.2751 1224.49 43.0426 1221.76 43.4612C1219.02 43.8691 1217.08 42.2054 1213.96 43.4612C1210.83 44.7063 1209.67 42.6239 1207.33 42.2053C1204.99 41.7867 1201.87 43.8798 1200.31 43.4612C1198.76 43.0426 1195.63 42.2161 1193.29 41.3681C1190.96 40.5309 1189.4 41.3682 1187.84 41.7868C1186.28 42.2054 1183.55 41.7868 1181.21 41.7868C1178.88 41.7868 1177.71 43.8798 1174.58 44.2984C1171.47 44.717 1166.39 45.1356 1164.44 45.5542C1162.49 45.9728 1160.94 45.1356 1159.77 43.8798C1158.59 42.6347 1154.69 44.717 1152.36 45.5542C1150.01 46.3914 1148.84 46.3915 1147.68 45.1356C1146.51 43.8798 1142.62 44.2984 1141.05 45.1356C1139.49 45.9728 1135.59 46.3807 1134.04 45.9728C1132.47 45.5542 1127.02 47.6473 1125.46 48.4845C1123.9 49.3217 1121.17 48.4845 1120 46.8101C1118.84 45.1356 1115.72 48.9031 1114.15 50.1482C1112.59 51.404 1109.48 48.8924 1106.75 48.8924C1104.01 48.8924 1100.51 50.1482 1098.95 49.7296C1097.39 49.3217 1093.49 50.5668 1091.93 52.2412C1090.37 53.9049 1086.86 51.404 1086.86 51.404C1086.86 51.404 1081.02 51.8226 1079.84 51.8226C1078.67 51.8226 1074.78 50.5775 1074 48.8924C1073.22 47.2179 1069.31 49.311 1068.54 50.5668C1067.76 51.8119 1063.87 52.6491 1061.52 52.6491C1059.18 52.6491 1058.01 52.6491 1056.85 52.2412C1055.68 51.8226 1054.9 49.7295 1054.9 47.6365C1054.9 45.5435 1051.39 47.2179 1050.61 48.4737C1049.83 49.7188 1047.1 48.8816 1045.94 47.2179C1044.76 45.5435 1042.03 48.0551 1040.87 49.3109C1039.7 50.5668 1035.41 48.4737 1033.07 48.4737C1030.74 48.4737 1029.96 51.3932 1027.61 51.3932C1025.28 51.3932 1023.33 50.5561 1021.38 49.3003C1019.43 48.0444 1019.05 45.9514 1017.47 43.8583C1015.91 41.7653 1009.67 46.3699 1007.73 48.0444C1005.79 49.7188 1001.89 46.37 999.933 47.2072C997.981 48.0444 995.248 47.2072 992.915 46.3699C990.573 45.5327 990.182 45.5328 988.24 45.5328C986.288 45.5328 984.726 45.1141 983.174 44.2769C981.612 43.4397 980.051 43.8583 977.327 43.8583C974.604 43.8583 976.156 41.3574 974.604 39.2643C973.043 37.1713 970.309 38.0085 968.758 37.1713C967.196 36.3341 965.634 35.0783 963.682 32.996C961.74 30.9029 957.835 31.7401 955.893 31.7401C953.941 31.7401 950.046 30.4843 948.875 29.6578C947.714 28.8206 943.419 28.8206 942.257 27.9834C941.086 27.1462 938.743 26.7276 936.791 26.7276C934.839 26.7276 932.116 24.6345 930.164 23.7973C928.211 22.9601 925.869 22.5415 923.536 21.715C921.193 20.8778 920.412 18.7847 918.47 17.5289C916.518 16.2731 911.062 15.4466 909.9 13.7722C908.729 12.0977 905.605 14.6094 903.263 16.2838C900.92 17.9583 895.864 17.5396 894.683 17.5396C893.512 17.5396 888.836 17.121 888.055 15.4573C887.275 13.7829 885.713 12.9457 884.151 14.6202C882.599 16.2946 877.523 17.969 875.581 17.121C873.629 16.2838 871.286 15.4574 868.163 16.7025C865.049 17.9583 861.936 20.4699 860.364 22.1336C858.812 23.8081 854.127 24.6453 854.127 24.6453C854.127 24.6453 849.842 22.5522 849.842 20.8778C849.842 19.2033 849.451 17.9475 849.061 16.2838C848.67 14.6094 843.605 15.4466 841.652 15.4466C839.7 15.4466 836.196 13.3536 833.863 12.0977C831.521 10.8526 829.178 15.028 826.455 15.8652C823.722 16.7024 819.047 16.7024 817.094 15.4466C815.142 14.1908 809.686 13.7722 809.686 13.7722C809.686 13.7722 804.23 14.6094 803.058 15.4466C801.887 16.2838 796.421 16.2838 794.869 16.2838C793.317 16.2838 789.022 17.121 786.69 17.5396C784.347 17.9583 779.672 16.2838 779.672 16.2838C779.672 16.2838 775.377 16.2838 774.205 17.121C773.044 17.9582 770.311 18.3769 767.187 17.5396C764.064 16.7024 767.578 14.2015 766.406 13.3643C765.245 12.5271 760.169 12.1085 760.169 12.1085C760.169 12.1085 755.103 16.2946 753.932 16.2946C752.761 16.2946 749.647 15.876 747.695 14.6202C745.743 13.3751 741.848 13.375 737.553 13.375C733.258 13.375 732.097 12.9564 729.754 12.5378C727.422 12.1192 726.641 10.8634 723.908 10.0262C721.185 9.19968 719.623 10.0261 718.452 9.19966C717.29 8.36244 716.119 7.94387 714.167 6.68804C712.214 5.43222 711.443 6.68805 707.149 7.09592C702.854 7.51453 702.854 7.09589 700.131 7.93311C697.397 8.77032 692.322 8.35173 690.77 8.35173C689.208 8.35173 685.704 7.93309 683.752 7.51448C681.8 7.09587 678.286 9.18895 676.734 10.434C675.182 11.6899 669.716 10.8634 668.544 10.8634C667.383 10.8634 665.04 10.8634 662.698 10.8634C660.355 10.8634 654.128 10.0262 652.957 10.8634C651.785 11.7006 647.11 12.5378 644.767 12.5378C642.425 12.5378 637.749 11.7006 636.187 11.282C634.626 10.8634 629.95 9.60754 629.95 9.60754C629.95 9.60754 626.436 9.60757 625.265 8.77035C624.094 7.93314 619.809 7.93312 617.076 8.35173C614.343 8.77034 611.619 8.77035 611.619 8.77035C611.619 8.77035 606.554 8.77033 604.211 10.0154C601.868 11.2712 597.974 10.0154 597.193 8.77035C596.402 7.51453 598.745 6.25868 598.745 4.58424C598.745 2.90981 595.631 5.42149 595.631 5.42149C595.631 5.42149 592.508 7.08515 591.346 7.93311C590.175 8.77032 589.004 7.5145 589.004 6.25867C589.004 5.00285 587.832 4.16562 587.832 4.16562C587.832 4.16562 585.109 4.16563 583.938 4.58424C582.766 5.00285 579.262 5.84009 578.091 7.08518C576.92 8.341 574.187 7.08517 571.073 6.6773C567.96 6.25869 566.778 7.9224 564.836 8.77035C562.884 9.60757 555.866 10.434 552.742 10.434C549.629 10.434 546.895 12.5271 545.734 12.5271C544.563 12.5271 539.877 11.6898 539.877 11.6898C539.877 11.6898 535.593 11.6899 533.64 12.5271C531.688 13.3643 530.517 13.7829 526.622 12.9457C522.728 12.1085 521.156 12.9457 519.604 12.9457C518.052 12.9457 517.652 12.1085 517.652 10.8634C517.652 9.60758 518.823 8.77034 516.871 8.35173C514.919 7.93312 513.357 10.434 511.805 11.282C510.243 12.1192 508.291 11.282 507.13 11.282C505.959 11.282 504.787 11.282 503.616 11.282C502.455 11.282 500.893 13.375 499.722 13.7829C498.55 14.2015 495.827 13.7829 494.656 13.7829C493.484 13.7829 490.751 13.7829 489.58 13.7829C488.409 13.7829 484.514 12.5271 482.562 12.9457C480.61 13.3643 479.438 12.9457 477.876 13.3643C477.876 13.3643 475.153 11.6899 475.153 10.0154C475.153 8.34098 472.811 9.59679 471.649 9.59679C470.478 9.59679 467.355 8.75958 465.012 7.92236C462.679 7.08514 460.336 10.0154 458.785 10.434C457.223 10.8634 456.442 8.35173 455.271 8.35173C454.099 8.35173 452.147 9.60756 450.986 10.434C449.815 11.2713 446.701 13.3643 445.519 13.3643C444.338 13.3643 441.625 13.3643 440.073 12.1085C438.511 10.8634 440.073 12.1085 439.673 10.434C439.282 8.77034 438.111 10.8633 435.388 11.2712C432.665 11.6898 432.665 11.2712 431.103 11.2712C429.531 11.2712 427.198 12.1085 425.246 12.5271C423.294 12.9457 421.342 12.1085 419.79 11.6898C418.228 11.2712 417.067 10.434 415.115 10.434C413.173 10.434 411.991 9.18898 410.049 9.18898C408.087 9.18898 404.973 9.60754 404.973 9.60754C404.973 9.60754 401.069 7.51448 398.736 7.51448C396.403 7.51448 394.061 10.8634 392.109 10.8634C390.156 10.8634 387.824 10.434 386.652 10.434C385.481 10.434 380.025 9.59679 378.473 7.51448C376.911 5.42144 376.911 4.17636 374.568 4.17636C372.226 4.17636 368.722 5.43224 366.379 5.43224C364.036 5.43224 362.475 6.26942 361.303 7.94385C360.132 9.61828 358.58 10.8741 357.409 11.2927C356.247 11.7113 352.343 12.13 352.343 12.13C352.343 12.13 350.391 11.2927 348.438 10.0369C346.486 8.79181 344.934 9.61831 344.144 8.37322C343.363 7.11739 342.582 6.69874 341.811 5.44291C341.03 4.18709 335.574 5.86154 335.574 5.86154C335.574 5.86154 331.289 9.19969 330.117 10.0369C328.946 10.8741 325.823 9.21043 324.661 8.37322C323.49 7.536 319.596 7.95459 319.596 7.95459C319.596 7.95459 316.862 9.21043 314.92 8.37322C312.968 7.536 311.797 9.21044 311.406 10.4555C311.016 11.7114 308.283 10.4555 307.121 8.79178C305.95 7.11734 304.779 7.95456 303.617 8.79178C302.446 9.62899 300.504 10.0369 300.504 10.0369C300.504 10.0369 298.551 8.37322 297.38 8.37322C296.209 8.37322 292.705 8.37322 291.143 8.37322C289.581 8.37322 286.848 7.536 284.906 6.69879C282.964 5.86157 282.573 6.28014 281.402 7.53597C280.231 8.79179 278.669 8.79179 277.498 7.53597C276.336 6.28014 274.774 8.37317 272.432 7.11735C270.099 5.86152 268.928 6.28018 266.195 5.02436C263.471 3.76853 262.29 4.18709 260.348 3.76848C258.396 3.34987 254.111 1.25687 252.929 1.25687C251.768 1.25687 246.312 0.000995646 245.14 0.000995646C243.969 0.000995646 239.294 0.419651 238.122 1.25687C236.951 2.08335 234.218 2.9313 232.276 2.9313C230.323 2.9313 227.21 1.67549 227.21 1.67549C227.21 1.67549 222.535 0.838244 220.963 0.838244C219.411 0.838244 217.849 1.67546 217.068 2.92056C216.287 4.17638 214.335 1.24614 212.383 1.66475C210.441 2.08336 207.317 3.33916 206.536 4.59499C205.765 5.85081 203.413 2.50193 203.413 2.50193C203.413 2.50193 200.69 2.92058 199.518 5.43224C198.347 7.94389 197.566 7.94385 195.614 7.94385C193.672 7.94385 195.614 4.60575 194.062 5.43224C192.5 6.26945 190.558 6.26942 188.215 6.26942C185.873 6.26942 184.711 7.52522 183.53 9.19966C182.359 10.8741 181.187 7.94385 181.187 7.94385C181.187 7.94385 177.673 6.69879 179.235 5.43224C180.797 4.17641 178.064 3.34986 176.502 3.75774C174.94 4.16561 172.607 3.75774 169.484 3.75774C166.36 3.75774 164.028 5.01358 161.295 4.17636C158.572 3.33915 156.229 3.75775 154.667 4.17636C153.105 4.59497 150.372 7.10661 148.43 7.51448C146.478 7.93309 140.631 10.0154 140.631 10.0154C140.631 10.0154 134.794 9.59682 134.404 8.35173C134.013 7.0959 130.89 7.09589 129.718 7.93311C128.547 8.77032 125.824 12.9457 125.824 12.9457C125.824 12.9457 121.529 14.2015 119.587 15.0387C117.635 15.8759 115.682 15.876 113.74 16.2946C111.788 16.7132 109.445 16.2945 107.503 18.8062C105.551 21.3178 102.047 20.4806 99.7042 19.2248C97.3715 17.969 95.4193 19.6434 93.4671 20.4806C91.5149 21.3178 89.5627 20.4807 88.0109 17.969C86.4491 15.4681 83.3256 16.2946 82.5447 17.969C81.7638 19.6434 79.8115 20.0621 78.2497 21.3179C76.698 22.5737 72.0124 22.1551 70.0702 22.9923C68.118 23.8295 66.1758 22.9923 64.614 21.7364C63.0522 20.4806 61.1102 20.8992 58.7675 22.1551C56.4248 23.4109 56.8153 24.6668 55.2535 23.4109C53.7017 22.1551 52.1398 22.9923 50.578 22.9923C49.0262 22.9923 47.845 26.749 46.2833 26.3304C44.7315 25.9118 41.9982 26.749 40.8268 28.0049C39.6555 29.25 35.3707 28.0049 34.1994 27.1677C33.028 26.3305 28.7331 27.5862 27.1814 29.6793C25.6296 31.7616 23.2768 30.0979 21.3346 30.0979C19.3823 30.0979 15.8684 30.5165 13.9162 29.6793C11.974 28.8421 11.1929 28.8421 10.0216 29.2607C8.85026 29.6793 8.46993 30.9351 6.12725 30.5165C3.79459 30.0979 3.79451 32.1802 3.79451 33.4468C1.64205 32.6847 0.000133391 35.7545 0.000133391 35.7545V369.944L2528 386.001Z" fill="white"/>
</svg>
